<svg width="59" height="59" viewBox="0 0 59 59" fill="none" xmlns="http://www.w3.org/2000/svg">
<path d="M47.3083 19.6898V32.1998C47.3083 39.6815 43.0331 42.8879 36.6202 42.8879H15.2682C14.1751 42.8879 13.1306 42.7908 12.1589 42.5722C11.5516 42.475 10.9687 42.305 10.4343 42.1107C6.79059 40.7504 4.58008 37.5925 4.58008 32.1998V19.6898C4.58008 12.2081 8.85532 9.00171 15.2682 9.00171H36.6202C42.0615 9.00171 45.9723 11.3094 47.0169 16.5806C47.1869 17.5522 47.3083 18.5481 47.3083 19.6898Z" stroke="white" stroke-width="3.31244" stroke-miterlimit="10" stroke-linecap="round" stroke-linejoin="round"/>
<path d="M54.5979 26.9774V39.4874C54.5979 46.9691 50.3227 50.1755 43.9098 50.1755H22.5578C20.7602 50.1755 19.1327 49.9327 17.7238 49.3983C14.8332 48.3295 12.8656 46.119 12.1611 42.5725C13.1328 42.7911 14.1773 42.8881 15.2704 42.8881H36.6224C43.0353 42.8881 47.3105 39.6818 47.3105 32.2001V19.69C47.3105 18.5483 47.2134 17.5282 47.0191 16.5808C51.6344 17.5525 54.5979 20.8074 54.5979 26.9774Z" stroke="white" stroke-width="3.31244" stroke-miterlimit="10" stroke-linecap="round" stroke-linejoin="round"/>
<path d="M25.9285 32.3695C29.4703 32.3695 32.3415 29.4984 32.3415 25.9566C32.3415 22.4149 29.4703 19.5437 25.9285 19.5437C22.3868 19.5437 19.5156 22.4149 19.5156 25.9566C19.5156 29.4984 22.3868 32.3695 25.9285 32.3695Z" stroke="white" stroke-width="3.31244" stroke-miterlimit="10" stroke-linecap="round" stroke-linejoin="round"/>
<path d="M12.0371 20.6128V31.301" stroke="white" stroke-width="3.31244" stroke-miterlimit="10" stroke-linecap="round" stroke-linejoin="round"/>
<path d="M39.8301 20.6138V31.302" stroke="white" stroke-width="3.31244" stroke-miterlimit="10" stroke-linecap="round" stroke-linejoin="round"/>
</svg>
