<svg width="60" height="59" viewBox="0 0 60 59" fill="none" xmlns="http://www.w3.org/2000/svg">
<path d="M26.6912 46.4654V11.9233C26.6912 8.644 25.3066 7.33228 21.8087 7.33228H12.9909C9.493 7.33228 8.1084 8.644 8.1084 11.9233V46.4654C8.1084 49.7448 9.493 51.0565 12.9909 51.0565H21.8087C25.3066 51.0565 26.6912 49.7448 26.6912 46.4654Z" stroke="white" stroke-width="3.64368" stroke-linecap="round" stroke-linejoin="round"/>
<path d="M51.8318 46.4654V11.9233C51.8318 8.644 50.4472 7.33228 46.9493 7.33228H38.1316C34.6579 7.33228 33.249 8.644 33.249 11.9233V46.4654C33.249 49.7448 34.6336 51.0565 38.1316 51.0565H46.9493C50.4472 51.0565 51.8318 49.7448 51.8318 46.4654Z" stroke="white" stroke-width="3.64368" stroke-linecap="round" stroke-linejoin="round"/>
</svg>
