<svg width="59" height="59" viewBox="0 0 59 59" fill="none" xmlns="http://www.w3.org/2000/svg">
<path d="M10.3169 35.7575L6.62466 32.0652C5.1186 30.5591 5.1186 28.0814 6.62466 26.5753L10.3169 22.883C10.9485 22.2515 11.4586 21.0126 11.4586 20.1381V14.9154C11.4586 12.7778 13.2076 11.0289 15.3452 11.0289H20.5678C21.4423 11.0289 22.6812 10.5189 23.3127 9.88729L27.005 6.19497C28.511 4.68892 30.9887 4.68892 32.4948 6.19497L36.1871 9.88729C36.8187 10.5189 38.0575 11.0289 38.932 11.0289H44.1546C46.2923 11.0289 48.0412 12.7778 48.0412 14.9154V20.1381C48.0412 21.0126 48.5513 22.2515 49.1829 22.883L52.8752 26.5753C54.3812 28.0814 54.3812 30.5591 52.8752 32.0652L49.1829 35.7575C48.5513 36.3891 48.0412 37.6279 48.0412 38.5024V43.7248C48.0412 45.8624 46.2923 47.6116 44.1546 47.6116H38.932C38.0575 47.6116 36.8187 48.1217 36.1871 48.7533L32.4948 52.4456C30.9887 53.9516 28.511 53.9516 27.005 52.4456L23.3127 48.7533C22.6812 48.1217 21.4423 47.6116 20.5678 47.6116H15.3452C13.2076 47.6116 11.4586 45.8624 11.4586 43.7248V38.5024C11.4586 37.6037 10.9485 36.3648 10.3169 35.7575Z" stroke="white" stroke-width="3.64368" stroke-linecap="round" stroke-linejoin="round"/>
<path d="M22.4893 36.5823L37.064 22.0076" stroke="white" stroke-width="3.64368" stroke-linecap="round" stroke-linejoin="round"/>
<path d="M35.836 35.3679H35.8578" stroke="white" stroke-width="4.85825" stroke-linecap="round" stroke-linejoin="round"/>
<path d="M23.6905 23.2221H23.7123" stroke="white" stroke-width="4.85825" stroke-linecap="round" stroke-linejoin="round"/>
</svg>
