<svg width="141" height="31" viewBox="0 0 141 31" fill="none" xmlns="http://www.w3.org/2000/svg">
<path fill-rule="evenodd" clip-rule="evenodd" d="M22.8893 5.88082C21.5968 4.75282 20.2808 4.42383 18.5653 4.42383C16.5443 4.42383 13.8653 5.31683 13.8653 7.90183C13.8653 10.4398 16.3798 11.1918 18.4713 11.3563C20.0458 11.4503 20.6803 11.7558 20.6803 12.5313C20.6803 13.3538 19.7168 13.8943 18.6593 13.8708C17.4138 13.8473 15.6043 13.1893 14.8288 12.3198L13.4658 14.2938C15.0873 15.9858 16.8498 16.2913 18.6123 16.2913C21.7848 16.2913 23.4063 14.5993 23.4063 12.6253C23.4063 9.66433 20.7508 9.19433 18.6358 9.05333C17.2023 8.95933 16.5678 8.55983 16.5678 7.83133C16.5678 7.12633 17.2963 6.72683 18.5888 6.72683C19.6463 6.72683 20.5628 6.98533 21.3383 7.71383L22.8893 5.88082Z" fill="#F89522"/>
<path fill-rule="evenodd" clip-rule="evenodd" d="M26.484 1.88606V4.75307H24.416V7.12657H26.484V11.9441C26.484 14.7171 28.0585 16.1036 30.479 16.0096C31.325 15.9861 31.9595 15.8451 32.7585 15.5396L31.983 13.1896C31.5835 13.4011 31.09 13.5186 30.6435 13.5186C29.774 13.5186 29.21 13.0016 29.21 11.9441V7.12657H32.312V4.75307H29.2335V1.58057L26.484 1.88606Z" fill="#F89522"/>
<path fill-rule="evenodd" clip-rule="evenodd" d="M39.4097 6.93841C43.7337 6.93841 43.7337 13.6829 39.4097 13.6829C37.5767 13.6829 36.1197 12.4139 36.1197 10.2989C36.0962 8.16041 37.5767 6.93841 39.4097 6.93841ZM42.6997 6.28041C42.0652 5.17591 40.6552 4.47091 39.1512 4.47091C35.9082 4.44741 33.3467 6.46841 33.3467 10.2989C33.3467 14.1999 35.7907 16.2444 39.0807 16.2209C40.3262 16.1974 42.0652 15.5629 42.6997 14.2469L42.8407 15.8684H45.4492V4.72941H42.8172L42.6997 6.28041Z" fill="#F89522"/>
<path fill-rule="evenodd" clip-rule="evenodd" d="M47.1875 4.72926V15.8683H49.937V9.99326C49.937 7.94876 51.2765 7.17326 52.71 7.17326C53.603 7.17326 54.1435 7.43176 54.7075 7.90176L55.953 5.50477C55.342 4.89377 54.2375 4.44727 53.086 4.44727C51.958 4.44727 50.8065 4.65876 49.937 6.02176L49.7255 4.72926H47.1875Z" fill="#F89522"/>
<path fill-rule="evenodd" clip-rule="evenodd" d="M59.3375 1.88606V4.75307H57.2695V7.12657H59.3375V11.9441C59.3375 14.7171 60.912 16.1036 63.3325 16.0096C64.1785 15.9861 64.813 15.8451 65.612 15.5396L64.8365 13.1896C64.437 13.4011 63.9435 13.5186 63.497 13.5186C62.6275 13.5186 62.0635 13.0016 62.0635 11.9441V7.12657H65.1655V4.75307H62.087V1.58057L59.3375 1.88606Z" fill="#F89522"/>
<path fill-rule="evenodd" clip-rule="evenodd" d="M67.21 4.72949V10.581C67.21 14.0355 69.1605 16.0565 71.816 16.0565C73.367 16.0565 74.4245 15.516 75.5995 14.388L75.7875 15.8685H78.255V4.72949H75.529V10.4165C75.529 12.132 74.3775 13.542 72.6855 13.542C70.923 13.542 70.0065 12.2495 70.0065 10.5575V4.72949H67.21Z" fill="#F89522"/>
<path fill-rule="evenodd" clip-rule="evenodd" d="M82.6021 20.5212V14.5522C83.4011 15.7742 85.1401 16.1267 86.3151 16.1267C89.8871 16.1267 91.9316 13.5417 91.9316 10.2987C91.9316 7.03221 89.6521 4.4707 86.2211 4.4707C84.9521 4.4707 83.4716 5.0112 82.6021 6.25671L82.4141 4.7292H79.8291V20.5212H82.6021ZM86.0096 13.4712C84.1296 13.4712 82.8371 12.0612 82.8371 10.2987C82.8371 8.55971 84.0121 7.12621 86.0096 7.12621C88.0071 7.12621 89.1821 8.55971 89.1821 10.2987C89.1586 12.0612 87.8661 13.4712 86.0096 13.4712Z" fill="#F89522"/>
<path fill-rule="evenodd" clip-rule="evenodd" d="M93.1777 1.60388C93.1777 3.74238 96.4207 3.74238 96.4207 1.60388C96.4442 -0.534625 93.1777 -0.534625 93.1777 1.60388ZM96.1857 15.8684H93.4362V4.68238H96.1857V15.8684Z" fill="#F89522"/>
<path fill-rule="evenodd" clip-rule="evenodd" d="M108.899 15.8685V10.017C108.899 6.5155 106.808 4.5415 104.176 4.5415C102.766 4.5415 101.638 5.10551 100.51 6.21001L100.322 4.706H97.8545V15.8685H100.58V10.1815C100.58 8.48951 101.732 7.056 103.424 7.056C105.187 7.056 106.103 8.34851 106.103 10.0405V15.8685H108.899Z" fill="#F89522"/>
<path fill-rule="evenodd" clip-rule="evenodd" d="M119.639 0.0762358V6.23324C118.981 5.08174 117.148 4.44724 115.973 4.44724C112.73 4.44724 110.31 6.44474 110.31 10.2752C110.31 13.9412 112.777 16.1032 116.044 16.1032C117.407 16.1032 118.77 15.6567 119.639 14.3172L119.827 15.8447H122.412V0.0527344H119.639V0.0762358ZM116.232 7.03224C117.971 7.03224 119.451 8.34824 119.451 10.2752C119.451 12.2727 117.971 13.5417 116.232 13.5417C114.469 13.5417 113.059 12.2022 113.059 10.2752C113.083 8.27774 114.469 7.03224 116.232 7.03224Z" fill="#F89522"/>
<path fill-rule="evenodd" clip-rule="evenodd" d="M124.433 1.60388C124.433 3.74238 127.676 3.74238 127.676 1.60388C127.676 -0.534625 124.433 -0.534625 124.433 1.60388Z" fill="#A4CD39"/>
<path d="M127.441 4.68262H124.691V15.8686H127.441V4.68262Z" fill="#3DC5F2"/>
<path fill-rule="evenodd" clip-rule="evenodd" d="M134.96 6.93841C139.284 6.93841 139.284 13.6829 134.96 13.6829C133.127 13.6829 131.67 12.4139 131.67 10.2989C131.67 8.16041 133.151 6.93841 134.96 6.93841ZM138.274 6.28041C137.639 5.17591 136.229 4.47091 134.725 4.47091C131.482 4.44741 128.921 6.46841 128.921 10.2989C128.921 14.1999 131.365 16.2444 134.655 16.2209C135.9 16.1974 137.639 15.5629 138.274 14.2469L138.415 15.8684H141V4.72941H138.368L138.274 6.28041Z" fill="#F89522"/>
<path d="M127.465 17.584H114.305V20.2865H127.465V17.584Z" fill="#A4CD39"/>
<path d="M116.936 17.6074H114.257V30.7909H116.936V17.6074Z" fill="#A4CD39"/>
<path d="M116.936 28.0884H103.823V30.7909H116.936V28.0884Z" fill="#A4CD39"/>
<path d="M6.5565 2.87305L5.8515 5.66955H7.896L8.601 2.87305H11.092L10.4105 5.69305H11.75V7.85505H9.87001L9.00051 11.2626H10.481V13.4481H8.50701L7.896 15.9861H5.358L5.969 13.4481H3.901L3.29 15.9861H0.799L1.41 13.4481H0V11.2626H1.974L2.8435 7.83155H1.2925V5.69305H3.3605L4.042 2.89655H6.5565V2.87305ZM5.217 7.69055L4.277 11.4036H6.627L7.56701 7.69055H5.217Z" fill="#F89522"/>
</svg>
