<svg width="111" height="34" viewBox="0 0 111 34" fill="none" xmlns="http://www.w3.org/2000/svg">
<path d="M26.5875 0.638428H6.13557C2.74699 0.638428 0 3.38542 0 6.774V27.2259C0 30.6145 2.74699 33.3615 6.13557 33.3615H26.5875C29.976 33.3615 32.723 30.6145 32.723 27.2259V6.774C32.723 3.38542 29.976 0.638428 26.5875 0.638428Z" fill="#3337E8"/>
<path fill-rule="evenodd" clip-rule="evenodd" d="M9.86144 6.77406C15.7111 6.86338 19.3468 6.84849 19.3468 6.84849C23.5555 6.89687 25.3714 9.12958 25.8737 11.2693C26.3649 13.3903 26.2384 15.9542 21.9665 18.0939C21.9665 18.0939 18.3272 19.9173 13.4636 22.3138C12.831 22.6263 12.0718 22.2691 11.9118 21.5807V21.577C11.7927 21.0784 12.0421 20.5648 12.5035 20.3415C18.4797 17.4539 21.0511 16.1069 21.0511 16.1069C23.8904 14.6928 24.0839 13.2006 23.7526 11.7679C23.4215 10.3352 21.7358 9.06634 19.4063 9.03652C19.4063 9.03652 17.2219 9.04027 9.83908 8.96587C9.33306 8.95837 8.89394 8.60865 8.77855 8.11742C8.6186 7.42528 9.15072 6.7629 9.86144 6.77406ZM22.3463 27.2256C16.4966 27.1364 12.861 27.1513 12.861 27.1513C8.65228 27.1028 6.8363 24.8702 6.33393 22.7305C5.84273 20.6093 5.96925 18.0456 10.2412 15.9058C10.2412 15.9058 13.8805 14.0824 18.7441 11.686C19.3767 11.3734 20.1359 11.7307 20.2958 12.419V12.4227C20.415 12.9214 20.1657 13.435 19.7042 13.6582C13.7279 16.5458 11.1566 17.8929 11.1566 17.8929C8.31738 19.307 8.12385 20.7992 8.455 22.2319C8.78624 23.6646 10.4719 24.9334 12.8014 24.9631C12.8014 24.9631 14.9858 24.9595 22.3686 25.0339C22.8747 25.0414 23.3138 25.3912 23.4291 25.8823C23.5891 26.5746 23.057 27.2368 22.3463 27.2256Z" fill="#F4F4F4"/>
<path d="M53.5179 11.23L41.6299 23.0862H52.7598C53.3989 23.0862 53.9188 23.6062 53.9188 24.2452C53.9188 24.8843 53.3989 25.4042 52.7598 25.4042H39.5263C38.8872 25.4042 38.3672 24.8843 38.3672 24.2452V23.5665C38.3672 23.2569 38.4902 22.9632 38.7086 22.7448L50.5648 10.8886H39.4627C38.8236 10.8886 38.3037 10.3687 38.3037 9.72961C38.3037 9.09058 38.8236 8.57056 39.4627 8.57056H52.6962C53.3353 8.57056 53.8552 9.09058 53.8552 9.72961V10.4083C53.8552 10.714 53.7323 11.0117 53.5179 11.23Z" fill="#F4F4F4"/>
<path d="M71.543 25.4083C70.9039 25.4083 70.384 24.8882 70.384 24.2492V22.8679C68.5224 24.8406 65.732 25.9322 62.7471 25.4519C58.9962 24.8525 56.047 21.7605 55.6104 17.9897C54.9833 12.5478 59.4764 7.99506 64.8825 8.44364C69.344 8.81669 72.706 12.6867 72.702 17.1601V24.2452C72.702 24.8882 72.182 25.4083 71.543 25.4083ZM70.3284 17.7952C70.8484 13.7029 67.411 10.2655 63.3186 10.7854C60.5402 11.1387 58.2857 13.3655 57.9244 16.14C57.3886 20.2363 60.8776 23.7213 64.9739 23.1855C67.7523 22.8242 69.9751 20.5737 70.3284 17.7952Z" fill="#F4F4F4"/>
<path d="M77.0596 19.8552C77.0596 19.8552 76.1944 16.0765 74.6939 10.0194C74.5114 9.2811 75.0711 8.57056 75.8291 8.57056C76.369 8.57056 76.8374 8.94368 76.9644 9.46761C78.8259 17.1204 79.3499 19.3908 79.3499 19.3908C79.9453 21.8041 81.6719 23.249 83.2358 23.249C84.7997 23.249 86.3081 22.6853 87.094 19.3908C87.094 19.3908 87.872 16.394 89.4279 9.49144C89.5469 8.9556 90.0232 8.57455 90.571 8.57455C91.3254 8.57455 91.8844 9.2771 91.7099 10.0154C90.3964 15.6438 89.3802 19.8631 89.3802 19.8631C88.1895 24.8167 85.5539 25.5709 83.2358 25.5709C80.886 25.563 78.1274 24.2135 77.0596 19.8552Z" fill="#F4F4F4"/>
<path d="M97.0617 20.4905C97.3035 20.8239 97.5499 21.1574 97.8389 21.4431C99.7805 23.3841 102.702 23.7731 105.063 22.6022C105.523 22.3759 106.071 22.4434 106.432 22.8046C106.992 23.3643 106.841 24.3129 106.131 24.6702C102.801 26.3491 98.6052 25.718 95.9382 22.8046C92.9732 19.5657 92.9614 14.481 95.9146 11.2342C99.2324 7.58642 104.884 7.50703 108.33 10.9524C110.505 13.1275 111.287 16.1958 110.613 18.9941C110.402 19.8752 109.6 20.4865 108.699 20.4865H97.0617V20.4905ZM96.1282 18.1844H107.881C108.195 18.1844 108.458 17.9422 108.485 17.6286C108.696 15.3226 107.636 12.8814 105.317 11.5637C103.083 10.2935 100.237 10.5356 98.2643 12.1829C96.41 13.7309 95.7201 16.037 96.1282 18.1844Z" fill="#F4F4F4"/>
</svg>
